# xmcd
#
# Track frame offsets:
#	150
#	17453
#	34114
#	54987
#	71689
#	102540
#	123074
#	146741
#	167626
#	193021
#	212136
#	230352
#
# Disc length: 3326 seconds
#
# Revision: 0
# Processed by: cddbd v1.5.1PL2 Copyright (c) Steve Scherf et al.
# Submitted via: audiograbber 1.83.01
#
DISCID=a30cfc0c
DTITLE=Kenny Parker - Raise the Dead
DYEAR=1996
DGENRE=Blues
TTITLE0=Too Hot For Me
TTITLE1=Your Girl's Gone Bad
TTITLE2=Take It Easy On A Fool
TTITLE3=She's The One For Me
TTITLE4=Shake Hands With The Devil
TTITLE5=Baby Cakes Bop
TTITLE6=Cryin' For Help
TTITLE7=You're So Sharp
TTITLE8=Blues For Mr. Bo
TTITLE9=Crazy 'Bout My Baby
TTITLE10=Brunoise
TTITLE11=Afterglow
EXTD=
EXTT0=
EXTT1=
EXTT2=
EXTT3=
EXTT4=
EXTT5=
EXTT6=
EXTT7=
EXTT8=
EXTT9=
EXTT10=
EXTT11=
PLAYORDER=
